<svg width="16" height="19" viewBox="0 0 16 19" fill="none" xmlns="http://www.w3.org/2000/svg">
<g clip-path="url(#clip0_197_64)">
<path d="M2.85714 6.85714V5.14286C2.85714 2.3025 5.16071 0 8 0C10.8393 0 13.1429 2.3025 13.1429 5.14286V6.85714H13.7143C14.975 6.85714 16 7.88214 16 9.14286V16C16 17.2607 14.975 18.2857 13.7143 18.2857H2.28571C1.02321 18.2857 0 17.2607 0 16V9.14286C0 7.88214 1.02321 6.85714 2.28571 6.85714H2.85714ZM5.14286 6.85714H10.8571V5.14286C10.8571 3.565 9.57857 2.28571 8 2.28571C6.42143 2.28571 5.14286 3.565 5.14286 5.14286V6.85714Z" fill="white"/>
</g>
<defs>
<clipPath id="clip0_197_64">
<rect width="16" height="18.2857" fill="white"/>
</clipPath>
</defs>
</svg>
