<svg width="20" height="18" viewBox="0 0 20 18" fill="none" xmlns="http://www.w3.org/2000/svg">
<path d="M7.22237 1.6875C7.22237 2.61949 6.47584 3.375 5.5557 3.375C4.63556 3.375 3.88903 2.61949 3.88903 1.6875C3.88903 0.755508 4.63556 0 5.5557 0C6.47584 0 7.22237 0.755508 7.22237 1.6875ZM5.27792 12.375V16.875C5.27792 17.4973 4.78139 18 4.16681 18C3.55222 18 3.0557 17.4973 3.0557 16.875V9.03164L2.06368 10.7051C1.74771 11.2359 1.06507 11.4082 0.539025 11.0883C0.012968 10.7684 -0.157192 10.0793 0.15892 9.54492L2.18243 6.13828C2.78486 5.12227 3.8682 4.5 5.03834 4.5H6.07306C7.2432 4.5 8.32654 5.12227 8.93071 6.13828L10.4897 8.76445C9.89946 9.3832 9.49321 10.1145 9.2189 10.9266C9.15293 10.8598 9.06612 10.7859 9.04876 10.7051L8.05571 9.03164V16.875C8.05571 17.4973 7.55918 18 6.94459 18C6.33001 18 5.83348 17.4973 5.83348 16.875V12.375H5.27792ZM10.0002 12.9375C10.0002 10.1426 12.2397 7.875 15.0002 7.875C17.7606 7.875 20.0002 10.1426 20.0002 12.9375C20.0002 15.7324 17.7606 18 15.0002 18C12.2397 18 10.0002 15.7324 10.0002 12.9375ZM15.0002 16.3125C15.462 16.3125 15.8335 15.9363 15.8335 15.4688C15.8335 15.0012 15.462 14.625 15.0002 14.625C14.5384 14.625 14.1668 15.0012 14.1668 15.4688C14.1668 15.9363 14.5384 16.3125 15.0002 16.3125ZM12.7779 11.5312C12.7779 11.8406 13.0279 12.0938 13.3335 12.0938C13.639 12.0938 13.889 11.8406 13.889 11.5312V11.3063C13.889 11.1199 14.0384 10.9688 14.2224 10.9688H15.6286C15.896 10.9688 16.1113 11.1867 16.1113 11.4574C16.1113 11.6402 16.0106 11.8055 15.8543 11.8934L14.7432 12.484C14.5592 12.5824 14.4446 12.7723 14.4446 12.9797V13.5C14.4446 13.8094 14.6946 14.0625 15.0002 14.0625C15.3057 14.0625 15.5557 13.8094 15.5557 13.5V13.3207L16.3717 12.8883C16.8925 12.607 17.2224 12.027 17.2224 11.4574C17.2224 10.568 16.5071 9.84375 15.6286 9.84375H14.2224C13.4238 9.84375 12.7779 10.4977 12.7779 11.3063V11.5312Z" fill="white"/>
</svg>
