<svg width="62" height="73" viewBox="0 0 62 73" fill="none" xmlns="http://www.w3.org/2000/svg">
<g filter="url(#filter0_d_344_903)">
<rect x="21" y="11" width="31" height="31" rx="10" fill="#F9FBFF"/>
<rect x="20.5" y="10.5" width="32" height="32" rx="10.5" stroke="#FFDD99"/>
</g>
<path d="M43.5833 22.6042H39.3333" stroke="#FFDD99" stroke-width="1.5" stroke-miterlimit="10" stroke-linecap="round" stroke-linejoin="round"/>
<path d="M32.2501 22.6042H29.4167" stroke="#FFDD99" stroke-width="1.5" stroke-miterlimit="10" stroke-linecap="round" stroke-linejoin="round"/>
<path d="M35.0834 25.0833C36.4526 25.0833 37.5626 23.9734 37.5626 22.6042C37.5626 21.235 36.4526 20.125 35.0834 20.125C33.7142 20.125 32.6042 21.235 32.6042 22.6042C32.6042 23.9734 33.7142 25.0833 35.0834 25.0833Z" stroke="#FFDD99" stroke-width="1.5" stroke-miterlimit="10" stroke-linecap="round" stroke-linejoin="round"/>
<path d="M43.5833 30.3958H40.75" stroke="#FFDD99" stroke-width="1.5" stroke-miterlimit="10" stroke-linecap="round" stroke-linejoin="round"/>
<path d="M33.6667 30.3958H29.4167" stroke="#FFDD99" stroke-width="1.5" stroke-miterlimit="10" stroke-linecap="round" stroke-linejoin="round"/>
<path d="M37.9167 32.875C39.2859 32.875 40.3958 31.765 40.3958 30.3958C40.3958 29.0266 39.2859 27.9167 37.9167 27.9167C36.5475 27.9167 35.4375 29.0266 35.4375 30.3958C35.4375 31.765 36.5475 32.875 37.9167 32.875Z" stroke="#FFDD99" stroke-width="1.5" stroke-miterlimit="10" stroke-linecap="round" stroke-linejoin="round"/>
<defs>
<filter id="filter0_d_344_903" x="0" y="0" width="73" height="73" filterUnits="userSpaceOnUse" color-interpolation-filters="sRGB">
<feFlood flood-opacity="0" result="BackgroundImageFix"/>
<feColorMatrix in="SourceAlpha" type="matrix" values="0 0 0 0 0 0 0 0 0 0 0 0 0 0 0 0 0 0 127 0" result="hardAlpha"/>
<feOffset dy="10"/>
<feGaussianBlur stdDeviation="10"/>
<feComposite in2="hardAlpha" operator="out"/>
<feColorMatrix type="matrix" values="0 0 0 0 0.55 0 0 0 0 0.55 0 0 0 0 0.55 0 0 0 0.1 0"/>
<feBlend mode="normal" in2="BackgroundImageFix" result="effect1_dropShadow_344_903"/>
<feBlend mode="normal" in="SourceGraphic" in2="effect1_dropShadow_344_903" result="shape"/>
</filter>
</defs>
</svg>
